<svg height="512" viewBox="0 0 64 64" width="512" xmlns="http://www.w3.org/2000/svg"><g id="Fire_Flame" data-name="Fire Flame"><path d="m45.5527 19.1646a1 1 0 0 0 -1.4707 1.2276 9.92 9.92 0 0 1 -.5283 9.1868c-3.2646-15.6841-10.4512-24.8074-10.7695-25.2059a1.0184 1.0184 0 0 0 -.9483-.3613 1.0014 1.0014 0 0 0 -.7763.6533c-.0381.1084-3.92 10.9008-12.66 17.5367-8.8125 6.6917-8.414 15.484-8.3945 15.7975a21.9976 21.9976 0 1 0 43.9951 0v-.0215c-.2844-13.2642-8.1145-18.5925-8.4475-18.8132zm-13.5527 38.8354a9.01 9.01 0 0 1 -9-9c0-7.383 7.9189-16.2925 8.2559-16.6685a1.0331 1.0331 0 0 1 1.4882 0c.337.3756 8.2559 9.2851 8.2559 16.6685a9.01 9.01 0 0 1 -9 9z"/></g></svg>